HIERARCHY
ROOT Hips
{
  OFFSET 3.92544 6.39728 0
  CHANNELS 6 Xposition Yposition Zposition Zrotation Xrotation Yrotation
  JOINT BN_Spine_01
  {
    OFFSET 5.06197 -0.168311 0
    CHANNELS 6 Xposition Yposition Zposition Zrotation Xrotation Yrotation
    JOINT BN_Spine_02
    {
      OFFSET 14.8952 0 0
      CHANNELS 6 Xposition Yposition Zposition Zrotation Xrotation Yrotation
      JOINT BN_Spine_03
      {
        OFFSET 14.3786 0 0
        CHANNELS 6 Xposition Yposition Zposition Zrotation Xrotation Yrotation
        JOINT BN__Neck_01
        {
          OFFSET 15.3325 0 0
          CHANNELS 6 Xposition Yposition Zposition Zrotation Xrotation Yrotation
          JOINT BN__Neck_02
          {
            OFFSET 11.0839 0 0
            CHANNELS 6 Xposition Yposition Zposition Zrotation Xrotation Yrotation
            JOINT BN__Neck_R_01
            {
              OFFSET 3.85383 1.1973 3.491
              CHANNELS 6 Xposition Yposition Zposition Zrotation Xrotation Yrotation
              End Site
              {
                OFFSET 0 0 0
              }
            }
            JOINT BN__Neck_L_01
            {
              OFFSET 3.85383 1.1973 -3.49098
              CHANNELS 6 Xposition Yposition Zposition Zrotation Xrotation Yrotation
              End Site
              {
                OFFSET 0 0 0
              }
            }
            JOINT BN_Head_01
            {
              OFFSET 9.67523 0 0
              CHANNELS 6 Xposition Yposition Zposition Zrotation Xrotation Yrotation
              JOINT BN_Mouth_01
              {
                OFFSET 1.08197 -0.588672 0
                CHANNELS 6 Xposition Yposition Zposition Zrotation Xrotation Yrotation
                JOINT BN_Tongue_01
                {
                  OFFSET 2.17792 0.065941 0
                  CHANNELS 6 Xposition Yposition Zposition Zrotation Xrotation Yrotation
                  JOINT BN_Tongue_02
                  {
                    OFFSET 3.80658 -0.000201226 0
                    CHANNELS 6 Xposition Yposition Zposition Zrotation Xrotation Yrotation
                    End Site
                    {
                      OFFSET 0 0 0
                    }
                  }
                }
              }
            }
          }
        }
      }
    }
  }
  JOINT BN_Tail_01
  {
    OFFSET 4.67587 -0.164094 0
    CHANNELS 6 Xposition Yposition Zposition Zrotation Xrotation Yrotation
    JOINT BN_Tail_02
    {
      OFFSET 13.1147 2.52724e-005 0
      CHANNELS 6 Xposition Yposition Zposition Zrotation Xrotation Yrotation
      JOINT BN_Tail_03
      {
        OFFSET 13.4995 9.10759e-005 0
        CHANNELS 6 Xposition Yposition Zposition Zrotation Xrotation Yrotation
        JOINT BN_Tail_04
        {
          OFFSET 13.2851 0 0
          CHANNELS 6 Xposition Yposition Zposition Zrotation Xrotation Yrotation
          JOINT BN_Tail_05
          {
            OFFSET 14.6528 0.000106812 0
            CHANNELS 6 Xposition Yposition Zposition Zrotation Xrotation Yrotation
            JOINT BN_Tail_06
            {
              OFFSET 13.1048 0 0
              CHANNELS 6 Xposition Yposition Zposition Zrotation Xrotation Yrotation
              JOINT BN_Tail_07
              {
                OFFSET 11.869 0.000113964 0
                CHANNELS 6 Xposition Yposition Zposition Zrotation Xrotation Yrotation
                End Site
                {
                  OFFSET 0 0 0
                }
              }
            }
          }
        }
      }
    }
  }
}
MOTION
Frames:	7
Frame Time:	0.0333333
3.92544 3.97237 0 5.37303 -0.0014928 6.81405e-005 5.06197 -0.168311 7.27596e-012 -0.197405 -3.80586 27.6738 14.8952 -2.38419e-007 -1.90735e-006 77.4458 -38.8202 -22.1877 14.3786 3.55272e-015 9.53674e-007 22.2958 16.2895 0.0664648 15.3325 0 0 -27.0604 -17.8381 5.80985 11.0839 -1.90735e-006 -5.96046e-008 -59.3027 7.04381 6.48738 5.03224 0.862378 5.75521 -87.314 -13.605 -72.5979 5.15087 1.14743 -5.01314 93.2246 -18.421 99.6847 9.67523 -3.81471e-006 4.44089e-015 -28.9105 -0.461706 -0.310428 1.08197 -0.588671 2.42652e-008 -2.14738 -1.71451e-008 3.46703e-008 4.12379 0.270935 -0.0743763 6.22778 0.023688 0.21707 5.13618 -0.850699 0.116957 -81.2366 10.128 25.6199 4.67587 -0.164094 7.27596e-012 179.224 0.722024 -14.3598 13.1147 -2.38419e-007 1.19209e-007 -5.54993 -0.931151 20.78 13.4995 3.9968e-015 -4.44089e-016 -3.02265 5.6635 31.0987 13.2851 -2.38419e-007 -5.32907e-015 -2.07015 -1.90946 51.8808 14.6528 4.34541e-013 3.8147e-006 -0.845885 -2.66635 28.3277 13.1048 -2.62013e-014 0 1.10743 1.04687 32.7556 11.869 -1.19209e-007 3.8147e-006 -6.43026 6.91257 20.8722 
3.92544 3.97237 0 5.37303 -0.0014928 6.81405e-005 5.06197 -0.168311 7.27596e-012 -0.116801 -3.84496 27.4245 14.8952 -2.38419e-007 -1.90735e-006 77.434 -38.825 -22.2223 14.3786 1.42109e-014 9.53674e-007 22.2683 16.6665 0.302421 15.3325 3.55272e-015 -2.66454e-015 -27.1688 -17.8452 5.39063 11.0839 -1.90735e-006 -5.96046e-008 -59.297 7.03147 6.39516 5.0131 0.885507 5.68078 -87.314 -13.605 -72.5979 5.1251 1.15916 -4.94023 93.2246 -18.421 99.6847 9.67523 -3.81471e-006 1.77636e-015 -29.1154 -0.376472 -0.108606 1.08197 -0.588671 2.43938e-008 -2.21734 -1.58075e-008 3.49252e-008 3.95156 0.265233 -0.0620852 6.16822 0.0230527 0.213304 5.1602 -0.79107 0.160376 -65.3504 8.14214 21.4253 4.67587 -0.164094 7.27596e-012 179.22 0.721392 -14.2677 13.1147 -2.38419e-007 1.19209e-007 -5.54711 -0.927149 20.5666 13.4995 -1.06581e-014 -1.33227e-015 -3.07221 5.63624 31.5149 13.2851 -2.38419e-007 -3.55271e-015 -2.04534 -1.89983 51.675 14.6528 4.79616e-013 3.8147e-006 -0.839909 -2.67063 28.2196 13.1048 -2.75335e-014 -7.10543e-015 1.10951 1.04243 32.5696 11.869 -1.19209e-007 3.8147e-006 -6.34326 6.93427 20.2817 
3.92544 3.97237 0 5.37303 -0.0014928 6.81405e-005 5.06197 -0.168311 7.27596e-012 -0.0284709 -3.88313 27.1769 14.8952 -2.38419e-007 -1.90735e-006 77.422 -38.8298 -22.2573 14.3786 1.42109e-014 9.53674e-007 22.2438 17.0233 0.530514 15.3325 -1.42109e-014 -1.77636e-015 -27.399 -17.9081 4.88411 11.0839 -1.90735e-006 -5.96046e-008 -59.2304 6.97449 6.57963 4.98918 0.915087 5.58559 -87.314 -13.605 -72.5979 5.09291 1.17462 -4.84413 93.2246 -18.421 99.6848 9.67523 -3.81471e-006 0 -29.319 -0.284259 0.0973842 1.08197 -0.588671 2.46779e-008 -2.29525 -1.45572e-008 3.46241e-008 3.76612 0.262144 -0.046459 6.10457 0.0220561 0.206226 5.21818 -0.640988 0.265123 -28.3561 2.72286 11.5734 4.67587 -0.164094 7.27596e-012 179.217 0.72059 -14.172 13.1147 -2.38419e-007 1.19209e-007 -5.54551 -0.919917 20.3514 13.4995 3.55271e-015 -2.22045e-015 -3.12047 5.60917 31.9208 13.2851 -2.38419e-007 0 -2.02022 -1.8902 51.4674 14.6528 5.08038e-013 3.8147e-006 -0.833581 -2.67505 28.1252 13.1048 -2.26486e-014 0 1.1118 1.03762 32.367 11.869 -1.19209e-007 3.8147e-006 -6.24912 6.95451 19.6455 
3.92544 3.97237 0 5.37303 -0.0014928 6.81405e-005 5.06197 -0.168311 7.27596e-012 0.0681335 -3.91856 26.9382 14.8952 -2.38419e-007 -1.90735e-006 77.4091 -38.8342 -22.2972 14.3786 1.77636e-014 9.53674e-007 22.2284 17.3483 0.733391 15.3325 -7.10543e-015 -1.77636e-015 -27.7802 -18.052 4.28998 11.0839 -1.90735e-006 -5.96046e-008 -59.0581 6.85914 7.06793 4.96132 0.948088 5.47936 -87.314 -13.605 -72.5979 5.0554 1.19222 -4.73474 93.2247 -18.421 99.6849 9.67523 -3.81471e-006 -1.77636e-015 -29.5193 -0.189659 0.308068 1.08197 -0.588671 2.5102e-008 -2.39223 -1.35178e-008 3.38573e-008 3.5704 0.25858 -0.0302793 6.04214 0.0214548 0.202693 5.28589 -0.452025 0.38749 12.3744 -4.17464 0.308446 4.67587 -0.164094 7.27596e-012 179.214 0.719785 -14.0781 13.1147 -2.38419e-007 1.19209e-007 -5.54281 -0.916013 20.1402 13.4995 1.33227e-015 -4.44089e-016 -3.16521 5.58366 32.3118 13.2851 -2.38419e-007 -7.10543e-015 -1.9924 -1.87943 51.2678 14.6528 5.65326e-013 3.8147e-006 -0.831132 -2.67703 28.0502 13.1048 -2.53131e-014 0 1.11057 1.03051 32.1614 11.869 -1.19209e-007 3.8147e-006 -6.15107 6.97306 18.9832 
3.92544 3.97237 0 5.37303 -0.0014928 6.81405e-005 5.06197 -0.168311 7.27596e-012 0.17262 -3.95313 26.7047 14.8952 -2.38419e-007 -1.90735e-006 77.3845 -38.8312 -22.3405 14.3786 1.06581e-014 9.53674e-007 22.2172 17.6448 0.922452 15.3325 1.06582e-014 -1.77636e-015 -28.2923 -18.2587 3.62064 11.0839 -1.90735e-006 -5.96046e-008 -58.7971 6.68875 7.79521 4.93093 0.984821 5.36114 -87.314 -13.605 -72.5979 5.01449 1.21143 -4.61543 93.2246 -18.421 99.6847 9.67523 -3.81471e-006 -2.66454e-015 -29.7185 -0.0957576 0.524556 1.08197 -0.588671 2.56254e-008 -2.52165 -1.26819e-008 3.27992e-008 3.35568 0.251329 -0.0153315 5.97911 0.0208558 0.199126 5.34319 -0.264576 0.491028 44.6963 -9.92852 -9.36018 4.67587 -0.164094 7.27596e-012 179.21 0.719051 -13.9814 13.1147 -2.38419e-007 1.19209e-007 -5.54013 -0.912466 19.9342 13.4995 3.10862e-015 -1.77636e-015 -3.21187 5.55644 32.6999 13.2851 -2.38419e-007 -1.77636e-015 -1.96743 -1.87016 51.0664 14.6528 6.04627e-013 3.8147e-006 -0.824757 -2.67834 27.9963 13.1048 -2.35367e-014 0 1.11311 1.02551 31.9465 11.869 -1.19209e-007 3.8147e-006 -6.04633 6.99352 18.2686 
3.92544 3.97237 0 5.37303 -0.0014928 6.81405e-005 5.06197 -0.168311 7.27596e-012 0.288691 -3.98607 26.4768 14.8952 -2.38419e-007 -1.90735e-006 77.3649 -38.8317 -22.3856 14.3786 1.06581e-014 9.53674e-007 22.2189 17.9147 1.09153 15.3325 3.55272e-015 -2.66454e-015 -28.9003 -18.5178 2.91832 11.0839 -1.90735e-006 -5.96046e-008 -58.4681 6.47846 8.68418 4.90024 1.02191 5.24176 -87.314 -13.605 -72.5979 4.97317 1.23082 -4.49495 93.2246 -18.421 99.6847 9.67523 -3.81471e-006 -1.77636e-015 -29.9166 0.00335048 0.752159 1.08197 -0.588671 2.62106e-008 -2.74889 -1.20145e-008 3.19429e-008 3.118 0.236736 -0.00400084 5.91191 0.0202664 0.195714 5.36523 -0.125601 0.533901 57.6123 -12.1798 -13.5092 4.67587 -0.164094 7.27596e-012 179.207 0.71829 -13.8836 13.1147 -2.38419e-007 1.19209e-007 -5.53863 -0.905863 19.7299 13.4995 3.10862e-015 -8.88178e-016 -3.25517 5.53081 33.0772 13.2851 -2.38419e-007 -1.42109e-014 -1.939 -1.85939 50.8632 14.6528 5.54001e-013 3.8147e-006 -0.818018 -2.67975 27.9566 13.1048 -2.13163e-014 -7.10543e-015 1.115 1.01972 31.7185 11.869 -1.19209e-007 3.8147e-006 -5.93584 7.01563 17.5075 
3.92544 3.97237 0 5.37303 -0.0014928 6.81405e-005 5.06197 -0.168311 7.27596e-012 0.413332 -4.01982 26.2574 14.8952 -2.38419e-007 -1.90735e-006 77.3346 -38.8302 -22.4336 14.3786 1.06581e-014 9.53674e-007 22.2263 18.1469 1.23456 15.3325 7.10543e-015 -1.77636e-015 -29.5519 -18.8 2.23406 11.0839 -1.90735e-006 -5.96046e-008 -58.112 6.24468 9.63416 4.87014 1.05829 5.1247 -87.314 -13.605 -72.5979 4.93267 1.24983 -4.3768 93.2246 -18.421 99.6847 9.67523 -3.81471e-006 -8.88178e-016 -30.108 0.103117 0.976565 1.08197 -0.588671 2.67893e-008 -3.08837 -1.14522e-008 3.13715e-008 2.81272 0.18492 0.00314704 5.84254 0.0196849 0.192372 5.16517 -0.0370365 0.478861 52.331 -10.9859 -12.0652 4.67587 -0.164094 7.27596e-012 179.203 0.717455 -13.7863 13.1147 -2.38419e-007 1.19209e-007 -5.53606 -0.902764 19.533 13.4995 -1.77636e-015 -8.88178e-016 -3.29396 5.50757 33.4329 13.2851 -2.38419e-007 -1.06581e-014 -1.91108 -1.84894 50.6641 14.6528 5.81313e-013 3.8147e-006 -0.815072 -2.67878 27.9388 13.1048 -2.08722e-014 7.10543e-015 1.11419 1.01212 31.4844 11.869 -1.19209e-007 3.8147e-006 -5.82005 7.032 16.7158 
